<svg width="25" height="31" viewBox="0 0 25 31" fill="none" xmlns="http://www.w3.org/2000/svg">
<path d="M12.5 0.916656C14.1042 0.916656 15.4167 2.22916 15.4167 3.83332C15.4167 5.43749 14.1042 6.74999 12.5 6.74999C10.8958 6.74999 9.58334 5.43749 9.58334 3.83332C9.58334 2.22916 10.8958 0.916656 12.5 0.916656ZM18.1875 9.81249C17.6042 9.22916 16.5833 8.20832 14.6875 8.20832H11.0417C6.95834 8.20832 3.75001 4.99999 3.75001 0.916656H0.833344C0.833344 5.58332 3.89584 9.37499 8.12501 10.6875V30.0833H11.0417V21.3333H13.9583V30.0833H16.875V12.7292L22.7083 18.4167L24.75 16.375L18.1875 9.81249Z" fill="white"/>
</svg>
