<svg width="41" height="42" viewBox="0 0 41 42" fill="none" xmlns="http://www.w3.org/2000/svg">
<path d="M40.4792 19.125H21.375V24.8125H34.9375C34.25 32.75 27.6458 36.1458 21.3958 36.1458C13.4167 36.1458 6.41667 29.8542 6.41667 21C6.41667 12.4583 13.0833 5.85417 21.4167 5.85417C27.8542 5.85417 31.625 9.95833 31.625 9.95833L35.5833 5.83333C35.5833 5.83333 30.5 0.166666 21.2083 0.166666C9.37501 0.166666 0.229172 10.1667 0.229172 21C0.229172 31.5208 8.83334 41.8333 21.5208 41.8333C32.6667 41.8333 40.7917 34.1875 40.7917 22.8958C40.7917 20.5 40.4792 19.125 40.4792 19.125Z" fill="#B11B1B"/>
</svg>
